<svg width="291" height="52" viewBox="0 0 291 52" fill="none" xmlns="http://www.w3.org/2000/svg">
<!-- GetLatest Logo - Monochrome Black (print, fax, low-color) -->

<!-- Lightning Bolt Icon -->
<path d="M25.311 5.20001L10.5908 30.16H23.3483L22.367 46.8L36.1058 21.84H23.3483L25.311 6.58668" stroke="#1a1a1a" stroke-width="2" stroke-linecap="round" stroke-linejoin="round"/>

<!-- "Get" -->
<path d="M60.2025 38.36C57.9945 38.36 56.1105 37.976 54.5505 37.208C53.0145 36.44 51.8145 35.336 50.9505 33.896C50.1105 32.432 49.6545 30.692 49.5825 28.676C49.5585 27.644 49.5465 26.54 49.5465 25.364C49.5465 24.164 49.5585 23.036 49.5825 21.98C49.6545 19.988 50.1105 18.284 50.9505 16.868C51.8145 15.452 53.0265 14.36 54.5865 13.592C56.1705 12.824 58.0425 12.44 60.2025 12.44C61.9545 12.44 63.4905 12.68 64.8105 13.16C66.1305 13.616 67.2225 14.216 68.0865 14.96C68.9745 15.68 69.6345 16.46 70.0665 17.3C70.5225 18.14 70.7625 18.92 70.7865 19.64C70.8105 19.856 70.7505 20.036 70.6065 20.18C70.4625 20.324 70.2705 20.396 70.0305 20.396H66.3225C66.0825 20.396 65.9025 20.348 65.7825 20.252C65.6625 20.156 65.5545 20.012 65.4585 19.82C65.2665 19.316 64.9665 18.824 64.5585 18.344C64.1505 17.84 63.5985 17.42 62.9025 17.084C62.2065 16.748 61.3065 16.58 60.2025 16.58C58.5705 16.58 57.2625 17.012 56.2785 17.876C55.3185 18.74 54.8025 20.168 54.7305 22.16C54.6585 24.248 54.6585 26.36 54.7305 28.496C54.8025 30.536 55.3305 32 56.3145 32.888C57.3225 33.776 58.6425 34.22 60.2745 34.22C61.3545 34.22 62.3145 34.028 63.1545 33.644C64.0185 33.26 64.6905 32.66 65.1705 31.844C65.6745 31.028 65.9265 29.984 65.9265 28.712V27.596H61.5345C61.2945 27.596 61.0905 27.512 60.9225 27.344C60.7545 27.176 60.6705 26.96 60.6705 26.696V24.788C60.6705 24.524 60.7545 24.308 60.9225 24.14C61.0905 23.972 61.2945 23.888 61.5345 23.888H70.1385C70.4025 23.888 70.6065 23.972 70.7505 24.14C70.9185 24.308 71.0025 24.524 71.0025 24.788V28.568C71.0025 30.584 70.5585 32.324 69.6705 33.788C68.8065 35.252 67.5585 36.38 65.9265 37.172C64.3185 37.964 62.4105 38.36 60.2025 38.36ZM83.2496 38.36C80.5856 38.36 78.4736 37.592 76.9136 36.056C75.3536 34.52 74.5136 32.336 74.3936 29.504C74.3696 29.264 74.3576 28.964 74.3576 28.604C74.3576 28.22 74.3696 27.92 74.3936 27.704C74.4896 25.904 74.8976 24.344 75.6176 23.024C76.3616 21.704 77.3816 20.696 78.6776 20C79.9736 19.28 81.4976 18.92 83.2496 18.92C85.1936 18.92 86.8256 19.328 88.1456 20.144C89.4656 20.936 90.4616 22.052 91.1336 23.492C91.8056 24.908 92.1416 26.552 92.1416 28.424V29.18C92.1416 29.42 92.0576 29.624 91.8896 29.792C91.7216 29.96 91.5056 30.044 91.2416 30.044H79.2896C79.2896 30.044 79.2896 30.08 79.2896 30.152C79.2896 30.224 79.2896 30.284 79.2896 30.332C79.3136 31.172 79.4696 31.952 79.7576 32.672C80.0696 33.368 80.5136 33.932 81.0896 34.364C81.6896 34.796 82.3976 35.012 83.2136 35.012C83.8856 35.012 84.4496 34.916 84.9056 34.724C85.3616 34.508 85.7336 34.268 86.0216 34.004C86.3096 33.74 86.5136 33.524 86.6336 33.356C86.8496 33.068 87.0176 32.9 87.1376 32.852C87.2816 32.78 87.4856 32.744 87.7496 32.744H90.8456C91.0856 32.744 91.2776 32.816 91.4216 32.96C91.5896 33.104 91.6616 33.284 91.6376 33.5C91.6136 33.884 91.4096 34.352 91.0256 34.904C90.6656 35.456 90.1376 35.996 89.4416 36.524C88.7456 37.052 87.8696 37.496 86.8136 37.856C85.7816 38.192 84.5936 38.36 83.2496 38.36ZM79.2896 27.02H87.2456V26.912C87.2456 25.976 87.0896 25.16 86.7776 24.464C86.4656 23.768 86.0096 23.216 85.4096 22.808C84.8096 22.4 84.0896 22.196 83.2496 22.196C82.4096 22.196 81.6896 22.4 81.0896 22.808C80.4896 23.216 80.0336 23.768 79.7216 24.464C79.4336 25.16 79.2896 25.976 79.2896 26.912V27.02ZM104.353 38C102.913 38 101.701 37.748 100.717 37.244C99.7326 36.74 99.0006 35.996 98.5206 35.012C98.0406 34.004 97.8006 32.756 97.8006 31.268V23.096H94.9566C94.7166 23.096 94.5126 23.012 94.3446 22.844C94.1766 22.676 94.0926 22.472 94.0926 22.232V20.144C94.0926 19.904 94.1766 19.7 94.3446 19.532C94.5126 19.364 94.7166 19.28 94.9566 19.28H97.8006V13.304C97.8006 13.064 97.8726 12.86 98.0166 12.692C98.1846 12.524 98.4006 12.44 98.6646 12.44H101.581C101.821 12.44 102.025 12.524 102.193 12.692C102.361 12.86 102.445 13.064 102.445 13.304V19.28H106.945C107.185 19.28 107.389 19.364 107.557 19.532C107.725 19.7 107.809 19.904 107.809 20.144V22.232C107.809 22.472 107.725 22.676 107.557 22.844C107.389 23.012 107.185 23.096 106.945 23.096H102.445V30.908C102.445 31.892 102.613 32.66 102.949 33.212C103.309 33.764 103.921 34.04 104.785 34.04H107.269C107.509 34.04 107.713 34.124 107.881 34.292C108.049 34.46 108.133 34.664 108.133 34.904V37.136C108.133 37.376 108.049 37.58 107.881 37.748C107.713 37.916 107.509 38 107.269 38H104.353Z" fill="#1a1a1a"/>

<!-- "Latest" -->
<path d="M112.738 38C112.498 38 112.294 37.916 112.126 37.748C111.958 37.58 111.874 37.376 111.874 37.136V13.664C111.874 13.424 111.958 13.22 112.126 13.052C112.294 12.884 112.498 12.8 112.738 12.8H116.086C116.326 12.8 116.53 12.884 116.698 13.052C116.866 13.22 116.95 13.424 116.95 13.664V33.716H128.362C128.626 33.716 128.842 33.8 129.01 33.968C129.178 34.136 129.262 34.352 129.262 34.616V37.136C129.262 37.376 129.178 37.58 129.01 37.748C128.842 37.916 128.626 38 128.362 38H112.738ZM137.761 38.36C136.513 38.36 135.385 38.12 134.377 37.64C133.369 37.136 132.565 36.476 131.965 35.66C131.389 34.82 131.101 33.884 131.101 32.852C131.101 31.172 131.773 29.84 133.117 28.856C134.485 27.848 136.285 27.176 138.517 26.84L143.449 26.12V25.364C143.449 24.356 143.197 23.576 142.693 23.024C142.189 22.472 141.325 22.196 140.101 22.196C139.237 22.196 138.529 22.376 137.977 22.736C137.449 23.072 137.053 23.528 136.789 24.104C136.597 24.416 136.321 24.572 135.961 24.572H133.117C132.853 24.572 132.649 24.5 132.505 24.356C132.385 24.212 132.325 24.02 132.325 23.78C132.349 23.396 132.505 22.928 132.793 22.376C133.081 21.824 133.537 21.296 134.161 20.792C134.785 20.264 135.589 19.82 136.573 19.46C137.557 19.1 138.745 18.92 140.137 18.92C141.649 18.92 142.921 19.112 143.953 19.496C145.009 19.856 145.849 20.348 146.473 20.972C147.097 21.596 147.553 22.328 147.841 23.168C148.129 24.008 148.273 24.896 148.273 25.832V37.136C148.273 37.376 148.189 37.58 148.021 37.748C147.853 37.916 147.649 38 147.409 38H144.493C144.229 38 144.013 37.916 143.845 37.748C143.701 37.58 143.629 37.376 143.629 37.136V35.732C143.317 36.188 142.897 36.62 142.369 37.028C141.841 37.412 141.193 37.736 140.425 38C139.681 38.24 138.793 38.36 137.761 38.36ZM138.985 34.94C139.825 34.94 140.581 34.76 141.253 34.4C141.949 34.04 142.489 33.488 142.873 32.744C143.281 31.976 143.485 31.016 143.485 29.864V29.108L139.885 29.684C138.469 29.9 137.413 30.248 136.717 30.728C136.021 31.208 135.673 31.796 135.673 32.492C135.673 33.02 135.829 33.476 136.141 33.86C136.477 34.22 136.897 34.496 137.401 34.688C137.905 34.856 138.433 34.94 138.985 34.94ZM161.176 38C159.736 38 158.524 37.748 157.54 37.244C156.556 36.74 155.824 35.996 155.344 35.012C154.864 34.004 154.624 32.756 154.624 31.268V23.096H151.78C151.54 23.096 151.336 23.012 151.168 22.844C151 22.676 150.916 22.472 150.916 22.232V20.144C150.916 19.904 151 19.7 151.168 19.532C151.336 19.364 151.54 19.28 151.78 19.28H154.624V13.304C154.624 13.064 154.696 12.86 154.84 12.692C155.008 12.524 155.224 12.44 155.488 12.44H158.404C158.644 12.44 158.848 12.524 159.016 12.692C159.184 12.86 159.268 13.064 159.268 13.304V19.28H163.768C164.008 19.28 164.212 19.364 164.38 19.532C164.548 19.7 164.632 19.904 164.632 20.144V22.232C164.632 22.472 164.548 22.676 164.38 22.844C164.212 23.012 164.008 23.096 163.768 23.096H159.268V30.908C159.268 31.892 159.436 32.66 159.772 33.212C160.132 33.764 160.744 34.04 161.608 34.04H164.092C164.332 34.04 164.536 34.124 164.704 34.292C164.872 34.46 164.956 34.664 164.956 34.904V37.136C164.956 37.376 164.872 37.58 164.704 37.748C164.536 37.916 164.332 38 164.092 38H161.176ZM176.213 38.36C173.549 38.36 171.437 37.592 169.877 36.056C168.317 34.52 167.477 32.336 167.357 29.504C167.333 29.264 167.321 28.964 167.321 28.604C167.321 28.22 167.333 27.92 167.357 27.704C167.453 25.904 167.861 24.344 168.581 23.024C169.325 21.704 170.345 20.696 171.641 20C172.937 19.28 174.461 18.92 176.213 18.92C178.157 18.92 179.789 19.328 181.109 20.144C182.429 20.936 183.425 22.052 184.097 23.492C184.769 24.908 185.105 26.552 185.105 28.424V29.18C185.105 29.42 185.021 29.624 184.853 29.792C184.685 29.96 184.469 30.044 184.205 30.044H172.253C172.253 30.044 172.253 30.08 172.253 30.152C172.253 30.224 172.253 30.284 172.253 30.332C172.277 31.172 172.433 31.952 172.721 32.672C173.033 33.368 173.477 33.932 174.053 34.364C174.653 34.796 175.361 35.012 176.177 35.012C176.849 35.012 177.413 34.916 177.869 34.724C178.325 34.508 178.697 34.268 178.985 34.004C179.273 33.74 179.477 33.524 179.597 33.356C179.813 33.068 179.981 32.9 180.101 32.852C180.245 32.78 180.449 32.744 180.713 32.744H183.809C184.049 32.744 184.241 32.816 184.385 32.96C184.553 33.104 184.625 33.284 184.601 33.5C184.577 33.884 184.373 34.352 183.989 34.904C183.629 35.456 183.101 35.996 182.405 36.524C181.709 37.052 180.833 37.496 179.777 37.856C178.745 38.192 177.557 38.36 176.213 38.36ZM172.253 27.02H180.209V26.912C180.209 25.976 180.053 25.16 179.741 24.464C179.429 23.768 178.973 23.216 178.373 22.808C177.773 22.4 177.053 22.196 176.213 22.196C175.373 22.196 174.653 22.4 174.053 22.808C173.453 23.216 172.997 23.768 172.685 24.464C172.397 25.16 172.253 25.976 172.253 26.912V27.02ZM196.019 38.36C194.579 38.36 193.343 38.192 192.311 37.856C191.303 37.52 190.475 37.1 189.827 36.596C189.179 36.092 188.699 35.588 188.387 35.084C188.075 34.58 187.907 34.16 187.883 33.824C187.859 33.56 187.931 33.356 188.099 33.212C188.291 33.044 188.495 32.96 188.711 32.96H191.555C191.651 32.96 191.735 32.972 191.807 32.996C191.879 33.02 191.975 33.092 192.095 33.212C192.407 33.476 192.731 33.752 193.067 34.04C193.427 34.328 193.847 34.58 194.327 34.796C194.807 34.988 195.407 35.084 196.127 35.084C197.063 35.084 197.843 34.904 198.467 34.544C199.115 34.16 199.439 33.62 199.439 32.924C199.439 32.42 199.295 32.012 199.007 31.7C198.743 31.388 198.239 31.112 197.495 30.872C196.751 30.608 195.695 30.332 194.327 30.044C192.983 29.732 191.867 29.336 190.979 28.856C190.091 28.376 189.431 27.776 188.999 27.056C188.567 26.336 188.351 25.496 188.351 24.536C188.351 23.6 188.627 22.712 189.179 21.872C189.755 21.008 190.595 20.3 191.699 19.748C192.827 19.196 194.219 18.92 195.875 18.92C197.171 18.92 198.299 19.088 199.259 19.424C200.219 19.736 201.011 20.132 201.635 20.612C202.283 21.092 202.775 21.584 203.111 22.088C203.447 22.568 203.627 22.988 203.651 23.348C203.675 23.612 203.603 23.828 203.435 23.996C203.267 24.14 203.075 24.212 202.859 24.212H200.195C200.075 24.212 199.967 24.188 199.871 24.14C199.775 24.092 199.679 24.032 199.583 23.96C199.319 23.72 199.031 23.468 198.719 23.204C198.407 22.94 198.023 22.712 197.567 22.52C197.135 22.304 196.559 22.196 195.839 22.196C194.927 22.196 194.231 22.4 193.751 22.808C193.271 23.192 193.031 23.684 193.031 24.284C193.031 24.692 193.139 25.052 193.355 25.364C193.595 25.652 194.063 25.928 194.759 26.192C195.455 26.456 196.511 26.732 197.927 27.02C199.535 27.308 200.807 27.74 201.743 28.316C202.703 28.868 203.375 29.516 203.759 30.26C204.167 30.98 204.371 31.784 204.371 32.672C204.371 33.752 204.047 34.724 203.399 35.588C202.775 36.452 201.839 37.136 200.591 37.64C199.367 38.12 197.843 38.36 196.019 38.36ZM216.477 38C215.037 38 213.825 37.748 212.841 37.244C211.857 36.74 211.125 35.996 210.645 35.012C210.165 34.004 209.925 32.756 209.925 31.268V23.096H207.081C206.841 23.096 206.637 23.012 206.469 22.844C206.301 22.676 206.217 22.472 206.217 22.232V20.144C206.217 19.904 206.301 19.7 206.469 19.532C206.637 19.364 206.841 19.28 207.081 19.28H209.925V13.304C209.925 13.064 209.997 12.86 210.141 12.692C210.309 12.524 210.525 12.44 210.789 12.44H213.705C213.945 12.44 214.149 12.524 214.317 12.692C214.485 12.86 214.569 13.064 214.569 13.304V19.28H219.069C219.309 19.28 219.513 19.364 219.681 19.532C219.849 19.7 219.933 19.904 219.933 20.144V22.232C219.933 22.472 219.849 22.676 219.681 22.844C219.513 23.012 219.309 23.096 219.069 23.096H214.569V30.908C214.569 31.892 214.737 32.66 215.073 33.212C215.433 33.764 216.045 34.04 216.909 34.04H219.393C219.633 34.04 219.837 34.124 220.005 34.292C220.173 34.46 220.257 34.664 220.257 34.904V37.136C220.257 37.376 220.173 37.58 220.005 37.748C219.837 37.916 219.633 38 219.393 38H216.477Z" fill="#1a1a1a"/>

<!-- AI Badge (black version) -->
<path d="M231 21C231 14.9249 235.925 10 242 10H266.594C272.669 10 277.594 14.9249 277.594 21V31C277.594 37.0751 272.669 42 266.594 42H242C235.925 42 231 37.0751 231 31V21Z" fill="#1a1a1a"/>
<path d="M242.84 34C242.712 34 242.592 33.952 242.48 33.856C242.384 33.76 242.336 33.64 242.336 33.496C242.336 33.432 242.352 33.36 242.384 33.28L248.168 17.8C248.216 17.64 248.304 17.504 248.432 17.392C248.576 17.264 248.768 17.2 249.008 17.2H251.624C251.864 17.2 252.048 17.264 252.176 17.392C252.304 17.504 252.4 17.64 252.464 17.8L258.248 33.28C258.264 33.36 258.272 33.432 258.272 33.496C258.272 33.64 258.224 33.76 258.128 33.856C258.032 33.952 257.92 34 257.792 34H255.704C255.48 34 255.312 33.952 255.2 33.856C255.104 33.744 255.04 33.64 255.008 33.544L253.88 30.616H246.752L245.624 33.544C245.592 33.64 245.52 33.744 245.408 33.856C245.312 33.952 245.152 34 244.928 34H242.84ZM247.592 27.856H253.04L250.304 20.44L247.592 27.856ZM261.089 34C260.929 34 260.793 33.944 260.681 33.832C260.569 33.72 260.513 33.584 260.513 33.424V17.776C260.513 17.616 260.569 17.48 260.681 17.368C260.793 17.256 260.929 17.2 261.089 17.2H263.345C263.521 17.2 263.657 17.256 263.753 17.368C263.865 17.48 263.921 17.616 263.921 17.776V33.424C263.921 33.584 263.865 33.72 263.753 33.832C263.657 33.944 263.521 34 263.345 34H261.089Z" fill="white"/>
</svg>
